<svg xmlns="http://www.w3.org/2000/svg" viewBox="0 0 179.68 111.76"><defs><style>.cls-1{fill:#fff;}</style></defs><g id="Ebene_2" data-name="Ebene 2"><g id="Ebene_1-2" data-name="Ebene 1"><g id="logo_weiß" data-name="logo weiß"><path class="cls-1" d="M102.6,111.56a3.51,3.51,0,0,1,.8-.5,64.58,64.58,0,0,0,22.3-18.9,41.19,41.19,0,0,1,3.7-3.5c4.4-4.3,8.9-8.6,13.3-13,6.1-6,12.2-12.1,18.3-18.2,1.1-1.1,1.1-1.5.1-2.5-9.4-9.4-18.7-18.9-28.3-28.2-9.1-8.8-20.1-13.1-32.8-11.9a41.29,41.29,0,0,0-36.5,31.7c-3.7,16.2,1.2,29.8,13.3,40.9,1.3,1.2,2.8,2.1,4.2,3.2a2.51,2.51,0,0,0,.7.4c0,.1-.1.2-.1.3a3,3,0,0,1-1,.2,35.67,35.67,0,0,1-22.4-4.4,6.34,6.34,0,0,1-2.2-2.1c-6.6-10.9-9.5-22.7-7.7-35.4,3-22,14.9-37.5,35.4-45.6,17-6.8,33.6-4.9,49.3,4.5a60.84,60.84,0,0,1,11.5,9.3c10.9,10.9,21.7,21.7,32.6,32.5,2.6,2.6,3.3,5.7,1.8,8.7a11.53,11.53,0,0,1-1.9,2.6l-20.4,20.4c-5.1,5.1-10,10.4-15.3,15.2a54.76,54.76,0,0,1-37.5,14.5c-.4,0-.8-.1-1.1-.1C102.7,111.76,102.7,111.66,102.6,111.56Z"/><path class="cls-1" d="M77.4.66c-.5.2-1,.5-1.5.7a61.65,61.65,0,0,0-22.3,19.2A19,19,0,0,1,51.1,23c-3.7,3.5-7.5,6.9-11.1,10.4-7.1,7-14.2,14.2-21.3,21.3-1.2,1.2-1.2,1.6,0,2.8L46.2,85c9.1,9.1,20,13.2,32.8,12.3a41.27,41.27,0,0,0,19.3-75.8,3.19,3.19,0,0,1-.7-.6,5.74,5.74,0,0,1,.7-.4,35.47,35.47,0,0,1,23.2,4.4,4.36,4.36,0,0,1,1.9,1.9,55,55,0,0,1,7.8,35.4,53.59,53.59,0,0,1-15.6,33,54.19,54.19,0,0,1-40.2,16.6c-15.9-.1-29.3-6.1-40.5-17.4-10.5-10.9-21.4-21.7-32.2-32.5-3.6-3.6-3.6-7.9,0-11.5,11.3-11.3,22.6-22.7,34-33.9A54.8,54.8,0,0,1,76.5.26c.3,0,.6.1.9.1Z"/></g></g></g></svg>